<?xml version="1.0" encoding="utf-8"?>
<!-- Generator: Adobe Illustrator 26.1.0, SVG Export Plug-In . SVG Version: 6.00 Build 0)  -->
<svg version="1.1" id="Layer_1" xmlns="http://www.w3.org/2000/svg" xmlns:xlink="http://www.w3.org/1999/xlink" x="0px" y="0px"
	 viewBox="0 0 1136.75 704.27" style="enable-background:new 0 0 1136.75 704.27;" xml:space="preserve">
<style type="text/css">
	.st0{opacity:0.9;fill:none;stroke:#5AABBC;stroke-width:4;stroke-linecap:round;stroke-miterlimit:10;enable-background:new    ;}

		.st1{opacity:0.45;fill:none;stroke:#5AABBC;stroke-width:20;stroke-linecap:square;stroke-miterlimit:10;enable-background:new    ;}
	.st2{fill:#333333;fill-opacity:0.62;stroke:#FFFFFF;stroke-width:0.85;stroke-miterlimit:10;}
	.st3{fill:#333333;fill-opacity:0.62;stroke:#FFFFFF;stroke-width:0.85;stroke-miterlimit:10.0002;}
	.st4{fill:#333333;}
	.st5{fill:#FFFFFF;}
	.st6{fill:#FFFFFF;stroke:#CCCCCC;stroke-miterlimit:10;}
	.st7{fill:none;stroke:#999999;stroke-miterlimit:10;}
	.st8{fill:#999999;}
	.st9{font-family:'LibreFranklin-Regular';}
	.st10{font-size:10px;}
	.st11{fill:#777777;}
	.st12{font-size:11px; letter-spacing:1px; text-transform:uppercase;}
	.st13{fill:none;stroke:#777777;stroke-width:1.25;stroke-miterlimit:10;}
	.st14{font-size:16px; font-style:italic; font-weight:bold; }
</style>
<g id="img">

		<image style="overflow:visible;opacity:0.9;enable-background:new    ;" width="2278" height="1412" href="slider-map_bg.jpg"  transform="matrix(0.4993 0 0 0.4993 -0.3466 -0.2324)">
	</image>
</g>
<g id="background">
	<path class="st0" d="M82.45,0c-2.88,8.75-6.88,17.75-13.88,25.75c-3,5-6,11-2,16c8,8,19,4,29,5c12,2,27,11,24,25c-4,13-19,15-30,22
		c-1,1-4,4-1,6c16,11,31-5,46-11c5-2,13-1,14,5c3,25,1,50,1,75c0,6-3,12-5,17c-1,1-2,2-3,3c-1,2-2,5-4,7c-9,10-22,20-21,35
		c9,16,29,9,43,5c13,2,33,4,32,21c-11,16-32,3-48,5c-3,1-5,1-8,2c-4,2-9,6-10,12c-2,10,6,16,15,18c20,5,41-1,60,6c6,3,12,7,12,14
		c0,4-2,8-4,11c-11,13-25,22-32,37c-2,6,2,11,7,14c6,3,13,3,18-2c10-10,19-22,33-23c10,0,20-3,29,3c15,10,28,24,31,42
		c1,12-6,22-18,26c-2,1-4,5-3,8c1,2,3,2,5,3c16,3,31,4,47,4c3,0,6-1,7-4c1-7-1-17,7-18c8-2,14,7,16,14c3,11,2,23,6,34
		c3,6,7,13,14,14c9,1,19-2,27,3c7,5,10,13,11,21c2,13,2,25,6,37c2,6,10,6,15,2c11-10,18-25,34-24c13,1,27,6,37-4s19-19,31-26
		c5-3,9,0,13,2c8,5,14,14,24,12s15-12,26-13c19-2,37,5,56-1c10-3,22,4,22,15c-1,13,0,33,17,32c9,0,19-1,28,4c10,6,13,17,13,28
		c1,10,11,14,19,17c13,3,27,5,38-3c14-11,27-27,46-25c16,7,23,22,28,38c1,3,5,4,8,3c11-5,19-12,27-21c4-4,10-8,16-7c3,7,3,14,3,21
		c1,10,9,19,19,19c14-1,30-7,37-21c2-5,0-11,2-17c1-3,3-6,6-5c24,4,41,21,63,30c11-2,23-3,32,3c12,9,13,24,11,38c-1,5-6,8-11,7
		c-9-3-17-9-26-12c-3-2-9-3-10,2c-6,15-11,30-21,42c-1,6-2,12-4,18c-1,4-3,9-6.55,11.64"/>
	<path class="st1" d="M149.19,168.86c0,0-1.16,9.03-7.73,20.96c-7.27,13.21-32.19,33.88-23.72,43.2c0.09,0.09,0.17,0.19,0.26,0.28
		c6.55,7.13,16.83,9.57,25.88,6.12c5.37-2.05,11.9-3.81,17.63-3.29c12.42,1.13,32.75,6.21,29.36,20.89
		c-3.39,14.68-37.3,5.08-37.3,5.08s-29.33-2.82-28.2,17.51s50.26,15.81,50.26,15.81s31.62,1.69,35.58,12.99
		c3.95,11.29-3.39,16.38-15.81,29.93s-23.15,21.46-17.51,31.06s18.52,13.55,34.39-6.21c15.87-19.76,51.44-10.73,51.44-10.73
		s31.62,25.98,30.49,45.74c-1.13,19.76-13.55,21.46-13.55,21.46s-17.51,11.29,0.56,13.55s50.26,5.65,50.82,0s1.13-30.49,17.51-14.12
		c0,0,5.65,6.78,6.78,13.55c1.13,6.78,2.26,44.05,20.89,44.05s32.19-3.39,36.71,29.36s5.65,46.87,25.41,29.36l12.44-13.59
		c4.53-4.01,10.48-6.05,16.51-5.61c9.91,0.72,25.05,3.66,30.91,0c9.04-5.65,33.88-34.45,44.61-31.06
		c10.73,3.39,24.28,21.46,33.88,14.12s11.21-15.05,42.92-11.86c17.05,1.71,28.24,0.56,28.24,0.56s29.93-12.42,28.8,20.33
		s24.28,24.28,24.28,24.28s32.19-3.39,33.32,27.67c0.78,21.48,26.96,23.78,43.03,23.16c7.19-0.28,13.95-3.41,18.94-8.6
		c10.01-10.42,29.38-27.25,44.2-19.64c20.89,10.73,23.72,33.88,23.72,33.88s3.95,12.42,20.33,0s34.45-40.09,35.01-7.91
		c0.45,25.75,17.34,25.86,23.58,24.72c1.6-0.29,24.56-2.29,34.02-23.03"/>
</g>
<g id="plants">
	<circle class="st2" cx="698" cy="543.38" r="5"/>
	<circle class="st2" cx="700.68" cy="541.07" r="5"/>
	<circle class="st2" cx="613.13" cy="475.08" r="5"/>
	<circle class="st2" cx="614.12" cy="480.79" r="5"/>
	<circle class="st2" cx="284.82" cy="361.78" r="5"/>
	<circle class="st2" cx="256.09" cy="340.32" r="5"/>
	<ellipse transform="matrix(0.3162 -0.9487 0.9487 0.3162 -146.0428 472.1185)" class="st3" cx="254.5" cy="337.37" rx="5" ry="5"/>
	<circle class="st2" cx="227.03" cy="319.59" r="5"/>
	<circle class="st2" cx="232.03" cy="319.59" r="5"/>
	<circle class="st2" cx="162.89" cy="95.05" r="5"/>
	<circle class="st2" cx="165.74" cy="95.05" r="5"/>
	<circle class="st2" cx="160.74" cy="121.92" r="5"/>
	<circle class="st2" cx="146.54" cy="62.49" r="5"/>
	<circle class="st2" cx="118.92" cy="37.32" r="5"/>
	<circle class="st2" cx="117.05" cy="35.59" r="5"/>
	<circle class="st2" cx="123.93" cy="11.57" r="5"/>
	<circle class="st2" cx="137.37" cy="40.59" r="5"/>
	<circle class="st2" cx="147.37" cy="56.83" r="5"/>
	<circle class="st2" cx="148.64" cy="58.89" r="5"/>
	<circle class="st2" cx="145.05" cy="56.26" r="5"/>
	<circle class="st2" cx="145.05" cy="50.6" r="5"/>
	<circle class="st2" cx="159.59" cy="55.04" r="5"/>
	<circle class="st2" cx="164.6" cy="63.89" r="5"/>
	<circle class="st2" cx="165.74" cy="57.48" r="5"/>
	<circle class="st2" cx="129.6" cy="108.01" r="5"/>
	<circle class="st2" cx="135.95" cy="113.01" r="5"/>
	<circle class="st2" cx="248.95" cy="71.02" r="5"/>
	<circle class="st2" cx="160.74" cy="129.4" r="5"/>
	<circle class="st2" cx="147.11" cy="124.4" r="5"/>
	<circle class="st2" cx="143.01" cy="128.56" r="5"/>
	<circle class="st2" cx="134.6" cy="129.4" r="5"/>
	<circle class="st2" cx="163.61" cy="134.97" r="5"/>
	<circle class="st2" cx="166.59" cy="132.79" r="5"/>
	<circle class="st2" cx="167.43" cy="121.29" r="5"/>
	<circle class="st2" cx="162.89" cy="113.01" r="5"/>
	<circle class="st2" cx="168.61" cy="111.05" r="5"/>
	<circle class="st2" cx="167.89" cy="106.05" r="5"/>
	<circle class="st2" cx="157.11" cy="110.69" r="5"/>
	<circle class="st2" cx="158.66" cy="113.01" r="5"/>
	<circle class="st2" cx="159.59" cy="101.04" r="5"/>
	<circle class="st2" cx="161.58" cy="99.11" r="5"/>
	<circle class="st2" cx="281.41" cy="131.29" r="5"/>
	<circle class="st2" cx="241.58" cy="175.52" r="5"/>
	<circle class="st2" cx="243.58" cy="201.12" r="5"/>
	<circle class="st2" cx="244.71" cy="131.29" r="5"/>
	<circle class="st2" cx="251.03" cy="130.91" r="5"/>
	<circle class="st2" cx="222.2" cy="132.79" r="5"/>
	<circle class="st2" cx="227.2" cy="131.29" r="5"/>
	<circle class="st2" cx="213.83" cy="133.66" r="5"/>
	<circle class="st2" cx="192.19" cy="131.29" r="5"/>
	<circle class="st2" cx="129.6" cy="156.14" r="5"/>
	<circle class="st2" cx="135.95" cy="156.14" r="5"/>
	<circle class="st2" cx="142.1" cy="162.34" r="5"/>
	<circle class="st2" cx="149.58" cy="163.66" r="5"/>
	<circle class="st2" cx="122.16" cy="177.03" r="5"/>
	<circle class="st2" cx="128.38" cy="200.18" r="5"/>
	<circle class="st2" cx="143.01" cy="198.77" r="5"/>
	<circle class="st2" cx="66.13" cy="202.82" r="5"/>
	<circle class="st2" cx="102.21" cy="226.38" r="5"/>
	<circle class="st2" cx="68.14" cy="262.11" r="5"/>
	<circle class="st2" cx="90.96" cy="253.26" r="5"/>
	<circle class="st2" cx="105.04" cy="243.25" r="5"/>
	<circle class="st2" cx="111.25" cy="244.79" r="5"/>
	<circle class="st2" cx="104.06" cy="255.71" r="5"/>
	<circle class="st2" cx="110.04" cy="257.11" r="5"/>
	<circle class="st2" cx="132.17" cy="263.27" r="5"/>
	<circle class="st2" cx="120.05" cy="259.29" r="5"/>
	<circle class="st2" cx="119.15" cy="264.29" r="5"/>
	<circle class="st2" cx="122.16" cy="270.39" r="5"/>
	<circle class="st2" cx="261.08" cy="231.02" r="5"/>
	<circle class="st2" cx="293.46" cy="255.52" r="5"/>
	<circle class="st2" cx="320.56" cy="278.86" r="5"/>
	<circle class="st2" cx="145.88" cy="299.57" r="5"/>
	<circle class="st2" cx="149.27" cy="325.92" r="5"/>
	<circle class="st2" cx="158.49" cy="309.58" r="5"/>
	<circle class="st2" cx="168.5" cy="312.18" r="5"/>
	<circle class="st2" cx="165.08" cy="305.97" r="5"/>
	<circle class="st2" cx="186.73" cy="304.57" r="5"/>
	<circle class="st2" cx="209.51" cy="300.96" r="5"/>
	<circle class="st2" cx="242.63" cy="314.58" r="5"/>
	<circle class="st2" cx="240.38" cy="309.55" r="5"/>
	<circle class="st2" cx="239.25" cy="312.18" r="5"/>
	<circle class="st2" cx="222.02" cy="324.59" r="5"/>
	<circle class="st2" cx="230.02" cy="327.15" r="5"/>
	<circle class="st2" cx="225.02" cy="331.29" r="5"/>
	<circle class="st2" cx="222.68" cy="329.59" r="5"/>
	<circle class="st2" cx="217.4" cy="326.49" r="5"/>
	<circle class="st2" cx="213.93" cy="328.46" r="5"/>
	<circle class="st2" cx="248.56" cy="323.46" r="5"/>
	<circle class="st2" cx="246.4" cy="345.69" r="5"/>
	<circle class="st2" cx="243.89" cy="340.68" r="5"/>
	<circle class="st2" cx="255.25" cy="346.35" r="5"/>
	<circle class="st2" cx="258.07" cy="334.11" r="5"/>
	<circle class="st2" cx="196.74" cy="380.7" r="5"/>
	<circle class="st2" cx="40.66" cy="385.7" r="5"/>
	<circle class="st2" cx="365.46" cy="343.3" r="5"/>
	<circle class="st2" cx="353.16" cy="358.31" r="5"/>
	<circle class="st2" cx="281.51" cy="336.29" r="5"/>
	<circle class="st2" cx="309.46" cy="353.31" r="5"/>
	<circle class="st2" cx="300.41" cy="358.31" r="5"/>
	<circle class="st2" cx="297.38" cy="375.62" r="5"/>
	<circle class="st2" cx="300" cy="375.44" r="5"/>
	<circle class="st2" cx="309.46" cy="372.93" r="5"/>
	<circle class="st2" cx="281.07" cy="356.4" r="5"/>
	<circle class="st2" cx="281.72" cy="353.24" r="5"/>
	<circle class="st2" cx="284.82" cy="352.89" r="5"/>
	<circle class="st2" cx="289.83" cy="357.53" r="5"/>
	<circle class="st2" cx="283.76" cy="359.31" r="5"/>
	<circle class="st2" cx="287.29" cy="358.75" r="5"/>
	<circle class="st2" cx="287.72" cy="355.22" r="5"/>
	<circle class="st2" cx="309.46" cy="431.37" r="5"/>
	<circle class="st2" cx="356.89" cy="414.16" r="5"/>
	<circle class="st2" cx="359.01" cy="425.31" r="5"/>
	<circle class="st2" cx="327.39" cy="447.62" r="5"/>
	<circle class="st2" cx="326.54" cy="445.07" r="5"/>
	<circle class="st2" cx="328.6" cy="444.09" r="5"/>
	<circle class="st2" cx="349.83" cy="432.65" r="5"/>
	<circle class="st2" cx="344.83" cy="451.15" r="5"/>
	<circle class="st2" cx="354.84" cy="447.05" r="5"/>
	<circle class="st2" cx="379.91" cy="439.36" r="5"/>
	<circle class="st2" cx="370.73" cy="439.08" r="5"/>
	<circle class="st2" cx="390.49" cy="430.31" r="5"/>
	<circle class="st2" cx="355.69" cy="462.58" r="5"/>
	<circle class="st2" cx="359.01" cy="460.04" r="5"/>
	<circle class="st2" cx="387.53" cy="449.09" r="5"/>
	<circle class="st2" cx="397.54" cy="465.69" r="5"/>
	<circle class="st2" cx="420.14" cy="475.15" r="5"/>
	<circle class="st2" cx="418.87" cy="484.04" r="5"/>
	<circle class="st2" cx="416.19" cy="497.87" r="5"/>
	<circle class="st2" cx="407.55" cy="508.46" r="5"/>
	<circle class="st2" cx="408.86" cy="536.56" r="5"/>
	<circle class="st2" cx="488.19" cy="526.55" r="5"/>
	<circle class="st2" cx="588" cy="551.94" r="5"/>
	<circle class="st2" cx="526.87" cy="471.19" r="5"/>
	<circle class="st2" cx="525.88" cy="489.12" r="5"/>
	<circle class="st2" cx="539.29" cy="478.11" r="5"/>
	<circle class="st2" cx="536.88" cy="486.58" r="5"/>
	<circle class="st2" cx="568.56" cy="466.82" r="5"/>
	<circle class="st2" cx="554.96" cy="485.03" r="5"/>
	<circle class="st2" cx="564.42" cy="487.49" r="5"/>
	<circle class="st2" cx="564.42" cy="493.5" r="5"/>
	<circle class="st2" cx="592.23" cy="479.11" r="5"/>
	<circle class="st2" cx="581.65" cy="472.82" r="5"/>
	<circle class="st2" cx="587.23" cy="479.11" r="5"/>
	<circle class="st2" cx="614.12" cy="469.22" r="5"/>
	<circle class="st2" cx="606.49" cy="470.41" r="5"/>
	<circle class="st2" cx="603.18" cy="471.19" r="5"/>
	<circle class="st2" cx="603.18" cy="474.22" r="5"/>
	<circle class="st2" cx="631.76" cy="486.58" r="5"/>
	<circle class="st2" cx="642.63" cy="483.11" r="5"/>
	<circle class="st2" cx="682.3" cy="486.58" r="5"/>
	<circle class="st2" cx="686.68" cy="499.29" r="5"/>
	<circle class="st2" cx="677.3" cy="530.34" r="5"/>
	<circle class="st2" cx="691.69" cy="539.38" r="5"/>
	<circle class="st2" cx="688.77" cy="541.96" r="5"/>
	<circle class="st2" cx="690.63" cy="552.51" r="5"/>
	<circle class="st2" cx="692.37" cy="548.92" r="5"/>
	<circle class="st2" cx="695.68" cy="549.76" r="5"/>
	<circle class="st2" cx="715.76" cy="527.66" r="5"/>
	<circle class="st2" cx="716.89" cy="531.96" r="5"/>
	<circle class="st2" cx="729.87" cy="518.77" r="5"/>
	<circle class="st2" cx="726.9" cy="516.37" r="5"/>
	<circle class="st2" cx="738.21" cy="543.38" r="5"/>
	<circle class="st2" cx="739.87" cy="580.74" r="5"/>
	<circle class="st2" cx="722.68" cy="597.54" r="5"/>
	<circle class="st2" cx="733.88" cy="532.46" r="5"/>
	<circle class="st2" cx="731.72" cy="530.2" r="5"/>
	<circle class="st2" cx="737.93" cy="528.45" r="5"/>
	<circle class="st2" cx="735.8" cy="530.2" r="5"/>
	<circle class="st2" cx="785.88" cy="570.74" r="5"/>
	<circle class="st2" cx="812.8" cy="557.51" r="5"/>
	<circle class="st2" cx="771.01" cy="581.83" r="5"/>
	<circle class="st2" cx="772.7" cy="588.98" r="5"/>
	<circle class="st2" cx="771.67" cy="595.76" r="5"/>
	<circle class="st2" cx="766.3" cy="595.76" r="5"/>
</g>
<g id="labels">
	<g>
		<g>
			<path class="st4" d="M958.7,549.7c-0.24,0-0.45-0.04-0.64-0.12c-0.21-0.08-0.42-0.24-0.62-0.48l-4.84-6.79v6.02
				c0.02,0.33-0.1,0.68-0.35,0.94c-0.18,0.19-0.51,0.42-1.05,0.42h-2.08c-0.82,0-1.4-0.55-1.4-1.34v-14.12
				c0-0.8,0.57-1.38,1.36-1.38h2.42c0.32,0,0.59,0.06,0.81,0.19c0.18,0.1,0.37,0.26,0.55,0.5l4.39,6.26v-5.58
				c0-0.79,0.57-1.36,1.36-1.36h2.22c0.73,0,1.26,0.55,1.26,1.3v14.22c0,0.38-0.15,0.72-0.43,0.97c-0.17,0.16-0.48,0.35-0.95,0.35
				L958.7,549.7L958.7,549.7z"/>
			<path class="st5" d="M960.84,533.86c0.17,0,0.26,0.1,0.26,0.3v14.22c0,0.09-0.03,0.17-0.1,0.23c-0.07,0.06-0.16,0.09-0.28,0.09
				h-2.02c-0.11,0-0.19-0.01-0.26-0.04c-0.07-0.03-0.15-0.09-0.24-0.2l-6.38-8.96c-0.04-0.06-0.09-0.08-0.13-0.08
				c-0.01,0-0.02,0-0.02,0c-0.05,0.01-0.07,0.05-0.07,0.12v8.8c0.01,0.24-0.12,0.36-0.4,0.36h-2.08c-0.27,0-0.4-0.11-0.4-0.34
				v-14.12c0-0.25,0.12-0.38,0.36-0.38h2.42c0.15,0,0.26,0.02,0.33,0.06s0.16,0.12,0.25,0.24l5.88,8.38
				c0.07,0.1,0.13,0.14,0.19,0.14c0.01,0,0.01,0,0.02,0c0.06-0.01,0.09-0.08,0.09-0.2v-8.26c0-0.24,0.12-0.36,0.36-0.36
				L960.84,533.86 M960.84,531.86h-2.22c-1.35,0-2.36,1.01-2.36,2.36v2.41l-2.54-3.62l-0.03-0.04l-0.03-0.04
				c-0.27-0.35-0.56-0.6-0.89-0.77c-0.35-0.19-0.79-0.3-1.27-0.3h-2.42c-1.35,0-2.36,1.02-2.36,2.38v14.12
				c0,1.33,1.03,2.34,2.4,2.34h2.08c0.7,0,1.33-0.26,1.78-0.73c0.42-0.44,0.64-1.03,0.62-1.67v-2.86l2.97,4.17l0.05,0.08l0.06,0.07
				c0.31,0.36,0.65,0.61,1.03,0.76c0.28,0.12,0.61,0.18,0.99,0.18h2.02c0.79,0,1.32-0.33,1.63-0.61c0.47-0.42,0.75-1.05,0.75-1.71
				v-14.22C963.1,532.85,962.13,531.86,960.84,531.86L960.84,531.86z"/>
		</g>
		<g>
			<path class="st4" d="M968.54,549.9c-1.21,0-2.31-0.27-3.27-0.81c-0.97-0.54-1.75-1.3-2.31-2.26s-0.85-2.06-0.85-3.27
				c0-1.32,0.29-2.49,0.86-3.49s1.35-1.79,2.32-2.34c0.96-0.55,2.03-0.83,3.18-0.83c1.2,0,2.27,0.27,3.2,0.8
				c0.93,0.54,1.67,1.31,2.21,2.3c0.52,0.97,0.79,2.15,0.79,3.5c0,0.25-0.03,0.46-0.09,0.64c-0.08,0.25-0.35,0.77-1.18,0.83h-0.08
				l0.33,0.14c0.52,0.22,0.68,0.61,0.74,0.82c0.06,0.22,0.09,0.65-0.27,1.12c-0.45,0.65-0.97,1.21-1.51,1.63
				c-0.57,0.44-1.21,0.76-1.9,0.94C970.06,549.81,969.33,549.9,968.54,549.9z M967.5,545.09c0.14,0.23,0.32,0.4,0.55,0.52
				c0.25,0.13,0.53,0.2,0.87,0.2c0.32,0,0.61-0.07,0.88-0.2c0.24-0.12,0.5-0.33,0.77-0.62h-3.12
				C967.46,545.02,967.48,545.05,967.5,545.09z M969.46,541.3c-0.08-0.15-0.19-0.27-0.33-0.38c-0.12-0.09-0.3-0.14-0.54-0.14
				c-0.25,0-0.47,0.06-0.66,0.17c-0.14,0.08-0.25,0.2-0.34,0.33L969.46,541.3z"/>
			<path class="st5" d="M968.48,537.9c1.03,0,1.93,0.22,2.7,0.67s1.38,1.08,1.83,1.91c0.45,0.83,0.67,1.83,0.67,3.02
				c0,0.15-0.01,0.26-0.04,0.34s-0.13,0.13-0.3,0.14h-6.8c-0.08,0-0.14,0.03-0.18,0.08s-0.06,0.13-0.06,0.24
				c0,0.49,0.12,0.93,0.35,1.31s0.55,0.67,0.94,0.88s0.84,0.31,1.33,0.31c0.48,0,0.92-0.1,1.33-0.31c0.41-0.21,0.82-0.55,1.23-1.03
				c0.05-0.05,0.1-0.08,0.14-0.09h0.01c0.04,0,0.11,0.02,0.21,0.07l1.44,0.6c0.19,0.08,0.21,0.21,0.06,0.4
				c-0.43,0.61-0.87,1.1-1.34,1.46s-0.98,0.62-1.55,0.77s-1.2,0.23-1.91,0.23c-1.04,0-1.97-0.23-2.78-0.68s-1.46-1.08-1.93-1.89
				s-0.71-1.73-0.71-2.77c0-1.15,0.24-2.14,0.73-2.99s1.14-1.5,1.95-1.97S967.51,537.9,968.48,537.9 M970.32,542.3
				c0.15,0,0.24-0.02,0.28-0.05c0.04-0.03,0.06-0.11,0.06-0.23c0-0.33-0.08-0.67-0.23-1.02c-0.15-0.35-0.38-0.64-0.68-0.87
				s-0.68-0.35-1.15-0.35c-0.44,0-0.83,0.11-1.18,0.32s-0.61,0.51-0.8,0.89s-0.28,0.81-0.28,1.29L970.32,542.3 M968.48,535.9
				c-1.32,0-2.56,0.32-3.68,0.97c-1.12,0.64-2.03,1.55-2.69,2.71c-0.66,1.15-1,2.49-1,3.99c0,1.4,0.33,2.67,0.99,3.78
				c0.65,1.11,1.55,2,2.68,2.63c1.11,0.62,2.37,0.93,3.75,0.93c0.88,0,1.69-0.1,2.43-0.3c0.82-0.22,1.58-0.6,2.25-1.12
				c0.62-0.48,1.2-1.1,1.73-1.86c0.59-0.79,0.51-1.54,0.41-1.93c-0.05-0.19-0.12-0.36-0.21-0.53c0.17-0.2,0.3-0.44,0.38-0.7
				c0.09-0.29,0.14-0.6,0.14-0.97c0-1.51-0.31-2.85-0.91-3.97c-0.63-1.15-1.5-2.06-2.59-2.69
				C971.1,536.22,969.86,535.9,968.48,535.9L968.48,535.9z"/>
		</g>
		<g>
			<path class="st4" d="M984.46,549.7c-0.7,0-1.27-0.41-1.48-1.08l-0.91-2.92l-0.94,2.98c-0.06,0.27-0.22,0.54-0.46,0.73
				c-0.25,0.19-0.56,0.29-0.92,0.29h-1.7c-0.69,0-1.24-0.41-1.45-1.08l-3.22-9.73c-0.13-0.44-0.08-0.86,0.14-1.2
				c0.24-0.38,0.65-0.6,1.13-0.6H977c0.3,0,0.59,0.09,0.84,0.27c0.29,0.2,0.49,0.49,0.57,0.84l0.93,2.95l0.92-3.03
				c0.08-0.28,0.26-0.55,0.52-0.74c0.25-0.19,0.56-0.29,0.88-0.29h1.68c0.3,0,0.59,0.09,0.84,0.27c0.29,0.19,0.48,0.49,0.55,0.84
				l0.91,2.96l0.95-3.15l0.06-0.1c0.12-0.2,0.26-0.37,0.43-0.51c0.24-0.2,0.56-0.31,0.9-0.31h1.52c0.49,0,0.92,0.24,1.15,0.65
				c0.2,0.35,0.23,0.77,0.07,1.17l-3.25,9.78c-0.1,0.3-0.26,0.54-0.47,0.72c-0.25,0.19-0.55,0.29-0.9,0.29L984.46,549.7
				L984.46,549.7z"/>
			<path class="st5" d="M989.5,538.1c0.13,0,0.23,0.05,0.28,0.14c0.05,0.09,0.05,0.2,0,0.32l-3.26,9.82
				c-0.04,0.12-0.09,0.2-0.15,0.25s-0.15,0.07-0.27,0.07h-1.64c-0.27,0-0.44-0.13-0.52-0.38l-1.72-5.5c-0.05-0.13-0.11-0.2-0.16-0.2
				s-0.09,0.07-0.12,0.2l-1.76,5.56c-0.03,0.12-0.07,0.2-0.13,0.25s-0.16,0.07-0.29,0.07h-1.7c-0.25,0-0.42-0.13-0.5-0.38
				l-3.22-9.74c-0.04-0.13-0.03-0.25,0.03-0.34c0.06-0.09,0.16-0.14,0.29-0.14H977c0.09,0,0.18,0.03,0.27,0.09s0.14,0.14,0.17,0.25
				l1.78,5.66c0.03,0.12,0.07,0.18,0.13,0.18s0.11-0.07,0.15-0.2l1.72-5.66c0.03-0.09,0.08-0.17,0.16-0.23s0.17-0.09,0.28-0.09h1.68
				c0.09,0,0.18,0.03,0.27,0.09s0.14,0.14,0.15,0.25l1.74,5.66c0.04,0.12,0.09,0.18,0.14,0.18s0.11-0.07,0.16-0.2l1.72-5.66
				c0.05-0.09,0.12-0.17,0.19-0.23s0.16-0.09,0.27-0.09H989.5 M989.5,536.1h-1.52c-0.57,0-1.1,0.19-1.53,0.54
				c-0.26,0.21-0.48,0.47-0.66,0.79l-0.11,0.2l-0.03,0.11c-0.16-0.48-0.47-0.89-0.9-1.19c-0.42-0.29-0.9-0.44-1.4-0.44h-1.68
				c-0.54,0-1.05,0.17-1.47,0.49c-0.41,0.3-0.7,0.71-0.86,1.19c-0.17-0.5-0.49-0.93-0.93-1.23c-0.42-0.29-0.9-0.44-1.4-0.44h-2.34
				c-0.81,0-1.55,0.4-1.97,1.06c-0.38,0.59-0.47,1.3-0.26,2l0.01,0.03l0.01,0.03l3.22,9.74c0.33,1.05,1.28,1.75,2.4,1.75h1.7
				c0.59,0,1.1-0.16,1.51-0.49c0.27-0.22,0.61-0.58,0.8-1.17c0.37,1.02,1.3,1.66,2.39,1.66h1.64c0.71,0,1.21-0.27,1.49-0.49
				c0.38-0.3,0.65-0.7,0.82-1.19l3.24-9.77c0.26-0.67,0.21-1.39-0.14-2C991.11,536.53,990.35,536.1,989.5,536.1L989.5,536.1z"/>
		</g>
		<g>
			<path class="st4" d="M1002.12,549.9c-1.59,0-2.99-0.35-4.17-1.05c-1.19-0.7-2.12-1.72-2.76-3.03c-0.62-1.27-0.93-2.77-0.93-4.48
				c0-1.73,0.32-3.26,0.95-4.54c0.65-1.32,1.58-2.35,2.77-3.06c1.18-0.71,2.57-1.07,4.14-1.07s2.96,0.36,4.13,1.08
				c1.18,0.72,2.11,1.75,2.75,3.05c0.62,1.27,0.94,2.79,0.94,4.53c0,1.71-0.31,3.22-0.93,4.48c-0.64,1.3-1.56,2.33-2.75,3.04
				C1005.07,549.54,1003.68,549.9,1002.12,549.9z M1002.12,537.1c-0.75,0-1.23,0.24-1.57,0.79c-0.29,0.46-0.63,1.44-0.63,3.47
				c0,1.97,0.33,2.91,0.61,3.34c0.2,0.32,0.59,0.74,1.59,0.74c0.97,0,1.34-0.39,1.56-0.73c0.28-0.43,0.6-1.36,0.6-3.35
				c0-2.05-0.34-3.03-0.62-3.49C1003.33,537.34,1002.85,537.1,1002.12,537.1z"/>
			<path class="st5" d="M1002.12,533.66c1.39,0,2.59,0.31,3.61,0.93c1.02,0.62,1.81,1.5,2.37,2.64s0.84,2.5,0.84,4.09
				c0,1.56-0.28,2.91-0.83,4.04s-1.34,2.01-2.37,2.62c-1.03,0.61-2.23,0.92-3.62,0.92c-1.41,0-2.63-0.3-3.66-0.91
				c-1.03-0.61-1.82-1.48-2.37-2.61s-0.83-2.48-0.83-4.04c0-1.59,0.28-2.95,0.85-4.1c0.57-1.15,1.36-2.03,2.39-2.65
				C999.53,533.97,1000.73,533.66,1002.12,533.66 M1002.12,546.44c1.09,0,1.89-0.4,2.4-1.19s0.76-2.09,0.76-3.89
				c0-1.84-0.26-3.18-0.77-4.01s-1.31-1.25-2.39-1.25c-1.09,0-1.9,0.42-2.42,1.26c-0.52,0.84-0.78,2.17-0.78,4
				c0,1.79,0.26,3.08,0.77,3.88S1001.01,546.44,1002.12,546.44 M1002.12,531.66c-1.75,0-3.31,0.41-4.65,1.22
				c-1.35,0.82-2.41,1.99-3.15,3.48c-0.7,1.42-1.06,3.1-1.06,4.99c0,1.86,0.35,3.51,1.03,4.92c0.72,1.49,1.78,2.65,3.15,3.45
				c1.33,0.79,2.91,1.19,4.68,1.19c1.75,0,3.31-0.4,4.65-1.2c1.36-0.81,2.42-1.98,3.14-3.46c0.68-1.4,1.03-3.06,1.03-4.92
				c0-1.89-0.35-3.56-1.04-4.97c-0.73-1.48-1.78-2.65-3.13-3.47C1005.44,532.07,1003.87,531.66,1002.12,531.66L1002.12,531.66z
				 M1002.12,544.44c-0.57,0-0.67-0.17-0.75-0.28c-0.14-0.21-0.45-0.91-0.45-2.8c0-1.96,0.34-2.71,0.48-2.95
				c0.09-0.15,0.19-0.31,0.72-0.31c0.5,0,0.6,0.15,0.69,0.3c0.14,0.23,0.47,0.98,0.47,2.96c0,1.96-0.34,2.65-0.44,2.81
				C1002.76,544.29,1002.66,544.44,1002.12,544.44L1002.12,544.44z"/>
		</g>
		<g>
			<path class="st4" d="M1011.36,549.7c-0.52,0-0.85-0.21-1.03-0.39s-0.39-0.5-0.39-1.01v-9.82c0-0.8,0.56-1.38,1.32-1.38h2.34
				c0.51,0,0.93,0.25,1.15,0.66c0.33-0.23,0.68-0.42,1.03-0.57c0.48-0.2,0.95-0.29,1.4-0.29c1.64,0,1.72,1.12,1.72,1.34v2.32
				c0,0.74-0.51,1.27-1.21,1.27h-0.1l-0.18-0.03c-0.25-0.07-0.43-0.1-0.62-0.11c-0.22-0.02-0.42-0.03-0.58-0.03
				c-0.12,0-0.26,0.03-0.41,0.08c-0.16,0.06-0.29,0.13-0.42,0.24c-0.14,0.11-0.24,0.22-0.32,0.34l-0.03,5.92
				c0,0.86-0.62,1.46-1.52,1.46H1011.36z"/>
			<path class="st5" d="M1017.18,537.9c0.48,0,0.72,0.11,0.72,0.34v2.32c0,0.18-0.07,0.27-0.21,0.27c-0.03,0-0.06,0-0.09-0.01
				c-0.24-0.07-0.49-0.11-0.74-0.13s-0.47-0.03-0.66-0.03c-0.24,0-0.49,0.05-0.75,0.14s-0.5,0.23-0.71,0.4
				c-0.21,0.17-0.39,0.36-0.52,0.56s-0.2,0.41-0.2,0.64v5.84c0,0.31-0.17,0.46-0.52,0.46h-2.14c-0.15,0-0.25-0.03-0.32-0.1
				s-0.1-0.17-0.1-0.3v-9.82c0-0.25,0.11-0.38,0.32-0.38h2.34c0.21,0,0.32,0.11,0.32,0.34v1.18c0,0.08,0.03,0.13,0.09,0.15
				c0.01,0,0.02,0.01,0.04,0.01c0.05,0,0.1-0.03,0.15-0.1c0.27-0.36,0.57-0.67,0.91-0.94s0.69-0.47,1.05-0.62
				C1016.52,537.98,1016.86,537.9,1017.18,537.9 M1017.18,535.9c-0.58,0-1.17,0.12-1.77,0.37c-0.16,0.07-0.33,0.14-0.49,0.23
				c-0.37-0.25-0.82-0.39-1.32-0.39h-2.34c-1.32,0-2.32,1.02-2.32,2.38v9.82c0,0.66,0.24,1.27,0.69,1.71
				c0.31,0.31,0.87,0.69,1.73,0.69h2.14c1.46,0,2.52-1.03,2.52-2.46v-5.5c0.03-0.02,0.06-0.04,0.1-0.05
				c0.06-0.02,0.09-0.02,0.09-0.02c0.13,0,0.3,0.01,0.5,0.02c0.12,0.01,0.24,0.03,0.36,0.06l0.07,0.02l0.07,0.01
				c0.16,0.03,0.32,0.05,0.48,0.05c1.24,0,2.21-1,2.21-2.27v-2.32C1019.9,537.12,1019.05,535.9,1017.18,535.9L1017.18,535.9z"/>
		</g>
		<g>
			<path class="st4" d="M1019.9,549.7c-0.85,0-1.44-0.58-1.44-1.42l0.06-14.04c0-0.8,0.56-1.38,1.32-1.38h2.42
				c0.75,0,1.3,0.57,1.3,1.36v14c0,0.58-0.24,0.92-0.45,1.11c-0.27,0.25-0.64,0.37-1.09,0.37H1019.9z"/>
			<path class="st5" d="M1022.26,533.86c0.2,0,0.3,0.12,0.3,0.36v14c0,0.17-0.04,0.3-0.12,0.37s-0.22,0.11-0.42,0.11h-2.12
				c-0.29,0-0.44-0.14-0.44-0.42l0.06-14.04c0-0.25,0.11-0.38,0.32-0.38H1022.26 M1022.26,531.86h-2.42c-1.32,0-2.32,1.02-2.32,2.38
				l-0.06,14.03c0,1.39,1.05,2.43,2.44,2.43h2.12c0.71,0,1.31-0.21,1.77-0.63c0.29-0.26,0.77-0.85,0.77-1.85v-14
				C1024.56,532.88,1023.57,531.86,1022.26,531.86L1022.26,531.86z"/>
		</g>
		<g>
			<path class="st4" d="M1029.72,549.9c-1.21,0-2.31-0.27-3.27-0.81c-0.97-0.54-1.74-1.3-2.31-2.26c-0.56-0.96-0.85-2.06-0.85-3.27
				c0-1.32,0.29-2.49,0.86-3.49c0.57-1,1.35-1.78,2.32-2.34c0.96-0.55,2.03-0.83,3.18-0.83c1.2,0,2.27,0.27,3.2,0.8
				c0.93,0.54,1.67,1.31,2.21,2.3c0.52,0.97,0.79,2.15,0.79,3.5c0,0.25-0.03,0.46-0.09,0.64c-0.08,0.25-0.35,0.77-1.18,0.83h-0.08
				l0.33,0.14c0.52,0.22,0.68,0.61,0.74,0.82c0.06,0.22,0.09,0.65-0.27,1.12c-0.45,0.65-0.97,1.21-1.51,1.63
				c-0.57,0.44-1.21,0.76-1.9,0.94C1031.24,549.81,1030.51,549.9,1029.72,549.9z M1028.68,545.09c0.14,0.23,0.32,0.4,0.55,0.52
				c0.25,0.13,0.53,0.2,0.87,0.2c0.32,0,0.61-0.07,0.88-0.2c0.24-0.12,0.5-0.33,0.77-0.62h-3.12
				C1028.64,545.02,1028.66,545.05,1028.68,545.09z M1030.64,541.3c-0.08-0.14-0.19-0.27-0.33-0.38c-0.04-0.03-0.18-0.14-0.54-0.14
				c-0.25,0-0.47,0.06-0.66,0.17c-0.14,0.09-0.25,0.2-0.35,0.33L1030.64,541.3z"/>
			<path class="st5" d="M1029.66,537.9c1.03,0,1.93,0.22,2.7,0.67c0.77,0.45,1.38,1.08,1.83,1.91c0.45,0.83,0.67,1.83,0.67,3.02
				c0,0.15-0.01,0.26-0.04,0.34s-0.13,0.13-0.3,0.14h-6.8c-0.08,0-0.14,0.03-0.18,0.08s-0.06,0.13-0.06,0.24
				c0,0.49,0.12,0.93,0.35,1.31s0.55,0.67,0.94,0.88c0.39,0.21,0.84,0.31,1.33,0.31c0.48,0,0.92-0.1,1.33-0.31
				c0.41-0.21,0.82-0.55,1.23-1.03c0.05-0.05,0.1-0.08,0.14-0.09h0.01c0.04,0,0.11,0.02,0.21,0.07l1.44,0.6
				c0.19,0.08,0.21,0.21,0.06,0.4c-0.43,0.61-0.87,1.1-1.34,1.46s-0.98,0.62-1.55,0.77c-0.57,0.15-1.2,0.23-1.91,0.23
				c-1.04,0-1.97-0.23-2.78-0.68s-1.46-1.08-1.93-1.89c-0.47-0.81-0.71-1.73-0.71-2.77c0-1.15,0.24-2.14,0.73-2.99
				s1.14-1.5,1.95-1.97S1028.69,537.9,1029.66,537.9 M1031.5,542.3c0.15,0,0.24-0.02,0.28-0.05c0.04-0.03,0.06-0.11,0.06-0.23
				c0-0.33-0.08-0.67-0.23-1.02c-0.15-0.35-0.38-0.64-0.68-0.87s-0.68-0.35-1.15-0.35c-0.44,0-0.83,0.11-1.18,0.32
				s-0.61,0.51-0.8,0.89s-0.28,0.81-0.28,1.29L1031.5,542.3 M1029.66,535.9c-1.32,0-2.56,0.32-3.68,0.97
				c-1.12,0.64-2.03,1.55-2.69,2.71c-0.66,1.15-1,2.49-1,3.99c0,1.4,0.33,2.67,0.99,3.78c0.65,1.11,1.56,2,2.68,2.62
				c1.11,0.62,2.37,0.93,3.75,0.93c0.88,0,1.69-0.1,2.43-0.3c0.82-0.22,1.58-0.6,2.25-1.12c0.62-0.48,1.2-1.1,1.73-1.86
				c0.59-0.79,0.51-1.54,0.41-1.93c-0.05-0.19-0.12-0.36-0.21-0.53c0.16-0.2,0.29-0.42,0.38-0.68c0.1-0.31,0.15-0.62,0.15-0.99
				c0-1.52-0.31-2.85-0.91-3.97c-0.62-1.15-1.49-2.06-2.59-2.69C1032.28,536.22,1031.04,535.9,1029.66,535.9L1029.66,535.9z"/>
		</g>
		<g>
			<path class="st4" d="M1039.04,549.9c-1.27,0-2.31-0.37-3.07-1.09c-0.79-0.74-1.19-1.69-1.19-2.83c0-0.98,0.31-1.86,0.93-2.6
				c0.45-0.55,1.06-1,1.8-1.35l-1.36-0.31c-0.41-0.13-0.67-0.34-0.82-0.62c-0.28-0.5-0.06-1.04,0.02-1.24
				c0.44-1.04,1.19-1.8,2.24-2.29c0.95-0.44,2.11-0.66,3.45-0.66c1.25,0,2.25,0.16,3.03,0.5c0.85,0.37,1.49,0.9,1.89,1.58
				c0.38,0.65,0.58,1.41,0.58,2.26v7.02c0,0.4-0.1,0.72-0.31,0.98c-0.16,0.2-0.49,0.46-1.07,0.46h-2.06c-0.48,0-0.89-0.22-1.14-0.6
				c-0.24,0.15-0.49,0.28-0.75,0.39C1040.57,549.76,1039.84,549.9,1039.04,549.9z M1041.6,544.69c-0.23,0.02-0.44,0.06-0.66,0.11
				c-0.26,0.07-0.5,0.16-0.7,0.27c-0.16,0.09-0.28,0.19-0.38,0.31c-0.04,0.05-0.06,0.1-0.06,0.2c0,0.13,0.03,0.16,0.06,0.18
				c0.09,0.08,0.28,0.12,0.52,0.12c0.2,0,0.37-0.03,0.51-0.09c0.17-0.07,0.32-0.15,0.43-0.24c0.09-0.08,0.2-0.2,0.28-0.3
				L1041.6,544.69L1041.6,544.69z M1040.9,540.82c-0.25,0-0.48,0.05-0.71,0.17c-0.14,0.07-0.28,0.19-0.4,0.37
				c0.55-0.09,1.14-0.14,1.77-0.15h0.02c-0.03-0.15-0.09-0.21-0.12-0.23C1041.34,540.85,1041.09,540.82,1040.9,540.82z"/>
			<path class="st5" d="M1041.04,537.9c1.11,0,1.99,0.14,2.64,0.42s1.13,0.67,1.42,1.17s0.44,1.08,0.44,1.75v7.02
				c0,0.16-0.03,0.27-0.08,0.34s-0.15,0.1-0.3,0.1h-2.06c-0.15,0-0.25-0.05-0.31-0.16s-0.1-0.24-0.11-0.4l-0.04-0.44
				c-0.01-0.12-0.06-0.18-0.14-0.18c-0.07,0-0.17,0.06-0.3,0.17c-0.41,0.37-0.88,0.67-1.39,0.89c-0.51,0.22-1.1,0.33-1.77,0.33
				c-1.01,0-1.81-0.27-2.39-0.82s-0.87-1.25-0.87-2.1c0-0.75,0.23-1.4,0.7-1.96s1.13-1,2-1.31s1.9-0.48,3.1-0.51l0.7-0.06
				c0.08,0,0.15-0.02,0.22-0.06s0.1-0.11,0.1-0.22v-0.42c0-0.51-0.15-0.9-0.44-1.19c-0.29-0.29-0.71-0.43-1.26-0.43
				c-0.4,0-0.78,0.09-1.15,0.27s-0.68,0.49-0.93,0.93c-0.04,0.09-0.09,0.15-0.14,0.18c-0.03,0.01-0.06,0.02-0.11,0.02
				s-0.11-0.01-0.19-0.02l-2-0.46c-0.08-0.03-0.14-0.07-0.17-0.13s-0.01-0.19,0.07-0.39c0.33-0.79,0.91-1.37,1.73-1.75
				C1038.83,538.09,1039.84,537.9,1041.04,537.9 M1040.38,546.88c0.33,0,0.63-0.05,0.89-0.16s0.48-0.23,0.67-0.38
				c0.2-0.17,0.36-0.35,0.48-0.52c0.12-0.17,0.18-0.35,0.18-0.54v-1.3c0-0.23-0.1-0.34-0.3-0.34l-0.56,0.04
				c-0.35,0.01-0.69,0.06-1.04,0.15c-0.35,0.09-0.66,0.21-0.94,0.36c-0.28,0.15-0.51,0.35-0.69,0.58s-0.27,0.5-0.27,0.81
				c0,0.4,0.14,0.72,0.42,0.95C1039.5,546.77,1039.89,546.88,1040.38,546.88 M1041.04,535.9c-1.49,0-2.79,0.25-3.87,0.76
				c-1.26,0.59-2.21,1.55-2.73,2.79c-0.33,0.82-0.32,1.53,0.02,2.14c0.18,0.33,0.45,0.62,0.78,0.82c-0.11,0.11-0.21,0.22-0.31,0.34
				c-0.76,0.91-1.16,2.03-1.16,3.24c0,1.4,0.52,2.63,1.5,3.56c0.96,0.9,2.23,1.36,3.76,1.36c0.93,0,1.8-0.17,2.56-0.49
				c0.07-0.03,0.13-0.06,0.2-0.09c0.38,0.25,0.83,0.38,1.31,0.38h2.06c1.02,0,1.6-0.53,1.85-0.84c0.35-0.43,0.53-0.97,0.53-1.6
				v-7.02c0-1.02-0.24-1.95-0.71-2.76c-0.51-0.88-1.31-1.55-2.36-2C1043.55,536.09,1042.43,535.9,1041.04,535.9L1041.04,535.9z"/>
		</g>
		<g>
			<path class="st4" d="M1054.88,549.7c-0.51,0-0.82-0.21-1-0.38c-0.17-0.17-0.38-0.49-0.38-1.02v-6.76c0-0.17-0.03-0.29-0.08-0.34
				c-0.03-0.03-0.14-0.08-0.38-0.08c-0.16,0-0.29,0.02-0.42,0.07c-0.15,0.06-0.3,0.14-0.44,0.26c-0.11,0.09-0.22,0.19-0.34,0.31
				v6.48c0,0.86-0.62,1.46-1.52,1.46h-2.14c-0.84,0-1.42-0.58-1.42-1.4v-9.82c0-0.8,0.56-1.38,1.32-1.38h2.42
				c0.5,0,0.92,0.25,1.13,0.66c0.39-0.25,0.8-0.46,1.22-0.6c0.49-0.17,1.02-0.25,1.57-0.25c1.25,0,2.26,0.39,3.02,1.16
				c0.76,0.76,1.14,1.77,1.14,3v7.16c0,0.87-0.61,1.48-1.48,1.48L1054.88,549.7L1054.88,549.7z"/>
			<path class="st5" d="M1054.42,537.9c0.97,0,1.74,0.29,2.31,0.86c0.57,0.57,0.85,1.34,0.85,2.3v7.16c0,0.32-0.16,0.48-0.48,0.48
				h-2.22c-0.13,0-0.23-0.03-0.29-0.09s-0.09-0.16-0.09-0.31v-6.76c0-0.45-0.12-0.8-0.37-1.05s-0.61-0.37-1.09-0.37
				c-0.28,0-0.54,0.05-0.78,0.14s-0.47,0.23-0.7,0.41s-0.47,0.41-0.72,0.69v6.88c0,0.31-0.17,0.46-0.52,0.46h-2.14
				c-0.28,0-0.42-0.13-0.42-0.4v-9.82c0-0.25,0.11-0.38,0.32-0.38h2.42c0.2,0,0.3,0.11,0.3,0.34v0.98c0,0.08,0.02,0.13,0.06,0.16
				c0.01,0.01,0.02,0.01,0.03,0.01c0.04,0,0.09-0.03,0.15-0.09c0.35-0.32,0.69-0.6,1.04-0.84c0.35-0.24,0.71-0.43,1.1-0.56
				S1053.98,537.9,1054.42,537.9 M1054.42,535.9c-0.66,0-1.29,0.1-1.89,0.31c-0.24,0.08-0.48,0.18-0.71,0.29
				c-0.37-0.25-0.82-0.4-1.32-0.4h-2.42c-1.32,0-2.32,1.02-2.32,2.38v9.82c0,1.37,1.04,2.4,2.42,2.4h2.14c1.1,0,1.97-0.59,2.34-1.49
				c0.14,0.36,0.34,0.63,0.52,0.81c0.31,0.31,0.85,0.68,1.7,0.68h2.22c1.41,0,2.48-1.07,2.48-2.48v-7.16c0-1.48-0.49-2.76-1.43-3.71
				C1057.5,536.69,1056.32,535.9,1054.42,535.9L1054.42,535.9z"/>
		</g>
		<g>
			<path class="st4" d="M1063.82,549.9c-1.34,0-2.51-0.25-3.47-0.74c-1.01-0.51-1.74-1.18-2.17-1.99c-0.13-0.22-0.2-0.48-0.2-0.74
				c0-0.47,0.25-0.87,0.67-1.08l1.35-0.69c0.07-0.04,0.14-0.06,0.2-0.09c-0.27-0.16-0.51-0.35-0.72-0.55
				c-0.72-0.68-1.08-1.57-1.08-2.63c0-0.88,0.24-1.67,0.7-2.36c0.46-0.68,1.12-1.21,1.97-1.58c0.81-0.36,1.76-0.54,2.84-0.54
				c1.17,0,2.2,0.22,3.08,0.67c0.91,0.46,1.58,1.03,1.99,1.71c0.08,0.12,0.16,0.29,0.22,0.47c0.17,0.57-0.08,1.11-0.61,1.41
				l-1.38,0.67c0.61,0.29,1.09,0.65,1.46,1.1c0.61,0.75,0.93,1.61,0.93,2.55c0,0.95-0.28,1.78-0.83,2.46
				c-0.52,0.65-1.23,1.15-2.12,1.48C1065.83,549.74,1064.87,549.9,1063.82,549.9z M1062.04,545.29c0.07,0.07,0.13,0.14,0.21,0.2
				c0.14,0.13,0.33,0.23,0.57,0.31c0.22,0.08,0.52,0.12,0.88,0.12h0.12c0.28,0,0.51-0.03,0.71-0.08c-0.07-0.02-0.16-0.04-0.26-0.07
				l-2.04-0.44C1062.16,545.33,1062.1,545.31,1062.04,545.29z M1065.15,541.2c-0.1-0.08-0.21-0.15-0.33-0.22
				c-0.24-0.13-0.55-0.2-0.94-0.2c-0.12,0-0.24,0.01-0.34,0.02L1065.15,541.2z"/>
			<path class="st5" d="M1063.92,537.9c1.01,0,1.89,0.19,2.63,0.56s1.27,0.82,1.59,1.34c0.05,0.08,0.09,0.16,0.12,0.25
				s-0.02,0.16-0.14,0.23l-1.44,0.7c-0.06,0.03-0.12,0.04-0.17,0.04c-0.03,0-0.05,0-0.08-0.01c-0.07-0.02-0.14-0.07-0.21-0.15
				c-0.23-0.29-0.53-0.55-0.92-0.76s-0.86-0.32-1.42-0.32c-0.49,0-0.91,0.1-1.25,0.29s-0.51,0.46-0.51,0.79
				c0,0.17,0.07,0.34,0.2,0.49c0.13,0.15,0.44,0.29,0.92,0.41l2.3,0.56c1.11,0.25,1.89,0.67,2.36,1.24s0.7,1.21,0.7,1.92
				c0,0.72-0.2,1.33-0.61,1.84s-0.97,0.9-1.69,1.17c-0.72,0.27-1.55,0.41-2.48,0.41c-1.19,0-2.19-0.21-3.02-0.63
				c-0.83-0.42-1.41-0.94-1.74-1.57c-0.05-0.09-0.08-0.18-0.08-0.27s0.04-0.15,0.12-0.19l1.36-0.7c0.12-0.06,0.22-0.09,0.29-0.09
				c0.01,0,0.01,0,0.02,0c0.07,0.01,0.14,0.04,0.19,0.11c0.17,0.24,0.38,0.47,0.62,0.68s0.54,0.38,0.9,0.51
				c0.33,0.12,0.73,0.17,1.21,0.17c0.05,0,0.1,0,0.15,0c0.37,0,0.71-0.04,1.01-0.13s0.54-0.21,0.71-0.38
				c0.17-0.17,0.26-0.36,0.26-0.59s-0.09-0.42-0.28-0.59c-0.19-0.17-0.53-0.31-1.04-0.43l-2.06-0.44c-1-0.23-1.76-0.58-2.27-1.07
				s-0.77-1.12-0.77-1.91c0-0.68,0.18-1.28,0.53-1.8c0.35-0.52,0.87-0.93,1.55-1.23C1062.16,538.05,1062.97,537.9,1063.92,537.9
				 M1063.92,535.9c-1.22,0-2.31,0.21-3.25,0.62c-1.02,0.45-1.83,1.1-2.4,1.93c-0.58,0.86-0.88,1.84-0.88,2.93
				c0,1.14,0.35,2.15,1.02,2.96l-0.23,0.12c-0.74,0.37-1.2,1.13-1.2,1.97c0,0.43,0.11,0.84,0.33,1.23c0.53,0.99,1.4,1.79,2.59,2.39
				c1.1,0.56,2.43,0.85,3.93,0.85c1.17,0,2.25-0.18,3.19-0.54c1.05-0.4,1.91-1,2.54-1.79c0.7-0.87,1.05-1.91,1.05-3.09
				c0-1.18-0.39-2.25-1.15-3.18c-0.09-0.11-0.18-0.21-0.28-0.31c0.9-0.54,1.3-1.54,1.01-2.51c-0.08-0.26-0.2-0.51-0.35-0.75
				c-0.51-0.82-1.31-1.51-2.37-2.05C1066.43,536.16,1065.24,535.9,1063.92,535.9L1063.92,535.9z"/>
		</g>
	</g>
	<g>
		<g>
			<path class="st4" d="M95.62,157.35c-0.38,0-0.74-0.14-0.99-0.4c-0.25-0.25-0.39-0.59-0.39-0.96v-14.06
				c0-0.37,0.13-0.71,0.37-0.98c0.26-0.29,0.63-0.44,1.03-0.44h5.42c2.17,0,3.82,0.38,5.03,1.15c1.32,0.84,2.01,2.14,2.01,3.75
				c0,0.96-0.27,1.79-0.8,2.47c-0.21,0.27-0.47,0.52-0.79,0.76c0.4,0.26,0.74,0.55,1.01,0.87c0.62,0.74,0.94,1.68,0.94,2.81
				c0,1.69-0.69,3.03-2,3.87c-1.2,0.77-2.88,1.15-5.14,1.15h-5.7C95.62,157.34,95.62,157.35,95.62,157.35z M101.22,152.99
				c0.61,0,1.07-0.11,1.31-0.31c0.2-0.17,0.29-0.37,0.29-0.67c0-0.31-0.09-0.43-0.12-0.47c-0.1-0.14-0.24-0.24-0.44-0.32
				c-0.25-0.1-0.55-0.15-0.9-0.15h-1.62v1.92H101.22z M101.36,146.63c0.23,0,0.44-0.02,0.63-0.07c0.14-0.03,0.25-0.09,0.34-0.16
				c0.1-0.08,0.18-0.17,0.24-0.28c0.04-0.07,0.06-0.18,0.06-0.31c0-0.38-0.13-0.53-0.28-0.63c-0.28-0.21-0.68-0.31-1.18-0.31h-1.44
				v1.76L101.36,146.63L101.36,146.63z"/>
			<path class="st5" d="M101.06,141.51c1.96,0,3.46,0.33,4.49,0.99s1.55,1.63,1.55,2.91c0,0.73-0.2,1.35-0.59,1.86
				s-1.07,0.97-2.03,1.38c-0.04,0.01-0.06,0.04-0.06,0.08s0.02,0.07,0.06,0.08c1.05,0.35,1.81,0.8,2.28,1.35s0.7,1.28,0.7,2.17
				c0,1.36-0.51,2.37-1.54,3.03s-2.56,0.99-4.6,0.99h-5.7c-0.12,0-0.21-0.03-0.28-0.1s-0.1-0.15-0.1-0.26v-14.06
				c0-0.12,0.04-0.22,0.11-0.3s0.17-0.12,0.29-0.12L101.06,141.51 M99.02,147.63h2.34c0.31,0,0.6-0.03,0.87-0.1
				c0.27-0.07,0.51-0.18,0.72-0.34s0.37-0.35,0.5-0.58s0.19-0.49,0.19-0.8c0-0.63-0.23-1.11-0.69-1.44s-1.05-0.5-1.77-0.5h-2.06
				c-0.25,0-0.38,0.11-0.38,0.34v3.06C98.74,147.51,98.83,147.63,99.02,147.63 M99.02,153.99h2.2c0.87,0,1.52-0.18,1.95-0.54
				s0.65-0.84,0.65-1.44c0-0.43-0.11-0.78-0.32-1.07c-0.21-0.29-0.5-0.5-0.87-0.65s-0.79-0.22-1.27-0.22h-2.24
				c-0.25,0-0.38,0.11-0.38,0.34v3.2C98.74,153.86,98.83,153.99,99.02,153.99 M101.06,139.51h-5.42c-0.68,0-1.31,0.27-1.76,0.77
				c-0.41,0.45-0.64,1.04-0.64,1.65v14.06c0,0.64,0.25,1.24,0.69,1.68c0.43,0.44,1.04,0.68,1.69,0.68h5.7
				c2.45,0,4.31-0.43,5.68-1.31c1.12-0.72,2.46-2.12,2.46-4.71c0-1.37-0.39-2.54-1.17-3.46c-0.08-0.1-0.17-0.2-0.27-0.29
				c0.02-0.03,0.04-0.06,0.07-0.08c0.67-0.86,1.01-1.9,1.01-3.09c0-1.97-0.86-3.56-2.47-4.6
				C105.25,139.94,103.43,139.51,101.06,139.51L101.06,139.51z"/>
		</g>
		<g>
			<path class="st4" d="M111.94,157.55c-1.27,0-2.31-0.37-3.08-1.09c-0.79-0.74-1.18-1.69-1.18-2.83c0-0.98,0.31-1.86,0.93-2.6
				c0.46-0.55,1.06-1,1.81-1.35l-1.36-0.31c-0.41-0.13-0.67-0.34-0.82-0.62c-0.28-0.5-0.06-1.04,0.02-1.25
				c0.44-1.04,1.19-1.8,2.24-2.29c0.95-0.44,2.11-0.66,3.45-0.66c1.26,0,2.25,0.16,3.03,0.5c0.85,0.36,1.49,0.9,1.89,1.58
				c0.38,0.65,0.58,1.41,0.58,2.26v7.02c0,0.4-0.1,0.71-0.3,0.97c-0.17,0.22-0.5,0.47-1.08,0.47H116c-0.48,0-0.89-0.22-1.14-0.6
				c-0.24,0.15-0.49,0.28-0.76,0.39C113.46,157.41,112.74,157.55,111.94,157.55z M114.5,152.34c-0.23,0.02-0.44,0.06-0.66,0.11
				c-0.26,0.07-0.5,0.16-0.7,0.27c-0.16,0.09-0.28,0.19-0.38,0.31c-0.04,0.05-0.06,0.1-0.06,0.2c0,0.13,0.03,0.16,0.06,0.18
				c0.09,0.08,0.28,0.12,0.52,0.12c0.2,0,0.37-0.03,0.51-0.08c0.17-0.07,0.32-0.15,0.43-0.24c0.1-0.09,0.2-0.2,0.28-0.3V152.34z
				 M113.8,148.47c-0.25,0-0.48,0.05-0.71,0.17c-0.14,0.07-0.28,0.19-0.4,0.37c0.55-0.09,1.14-0.14,1.77-0.15h0.02
				c-0.03-0.15-0.09-0.21-0.12-0.23C114.24,148.5,113.99,148.47,113.8,148.47z"/>
			<path class="st5" d="M113.94,145.55c1.11,0,1.99,0.14,2.64,0.42s1.13,0.67,1.42,1.17s0.44,1.08,0.44,1.75v7.02
				c0,0.16-0.03,0.27-0.08,0.34c-0.05,0.07-0.15,0.1-0.3,0.1H116c-0.15,0-0.25-0.05-0.31-0.16s-0.1-0.24-0.11-0.4l-0.04-0.44
				c-0.01-0.12-0.06-0.19-0.14-0.19c-0.07,0-0.17,0.06-0.3,0.17c-0.41,0.37-0.88,0.67-1.39,0.89s-1.1,0.33-1.77,0.33
				c-1.01,0-1.81-0.27-2.39-0.82s-0.87-1.25-0.87-2.1c0-0.75,0.23-1.4,0.7-1.96c0.47-0.56,1.13-1,2-1.31s1.9-0.48,3.1-0.51l0.7-0.06
				c0.08,0,0.15-0.02,0.22-0.06s0.1-0.11,0.1-0.22v-0.42c0-0.51-0.15-0.9-0.44-1.19c-0.29-0.29-0.71-0.43-1.26-0.43
				c-0.4,0-0.78,0.09-1.15,0.27c-0.37,0.18-0.68,0.49-0.93,0.93c-0.04,0.09-0.09,0.15-0.14,0.18c-0.03,0.01-0.06,0.02-0.11,0.02
				s-0.11-0.01-0.18-0.02l-2-0.46c-0.08-0.03-0.14-0.07-0.17-0.13s-0.01-0.19,0.07-0.39c0.33-0.79,0.91-1.37,1.73-1.75
				C111.73,145.74,112.74,145.55,113.94,145.55 M113.28,154.53c0.33,0,0.63-0.05,0.89-0.16s0.48-0.23,0.67-0.38
				c0.2-0.17,0.36-0.35,0.48-0.52s0.18-0.35,0.18-0.54v-1.3c0-0.23-0.1-0.34-0.3-0.34l-0.56,0.04c-0.35,0.01-0.69,0.06-1.04,0.15
				s-0.66,0.21-0.94,0.36s-0.51,0.35-0.69,0.58s-0.27,0.5-0.27,0.81c0,0.4,0.14,0.72,0.42,0.95
				C112.4,154.41,112.78,154.53,113.28,154.53 M113.94,143.55c-1.49,0-2.79,0.25-3.87,0.75c-1.26,0.59-2.21,1.55-2.73,2.79
				c-0.33,0.83-0.32,1.54,0.03,2.15c0.18,0.33,0.45,0.61,0.78,0.82c-0.11,0.11-0.21,0.22-0.3,0.34c-0.76,0.91-1.16,2.03-1.16,3.24
				c0,1.4,0.52,2.63,1.5,3.56c0.96,0.91,2.23,1.36,3.76,1.36c0.93,0,1.79-0.17,2.56-0.49c0.07-0.03,0.13-0.06,0.2-0.09
				c0.38,0.24,0.83,0.38,1.31,0.38h2.06c1.03,0,1.61-0.53,1.86-0.85c0.35-0.43,0.52-0.97,0.52-1.59v-7.02
				c0-1.02-0.24-1.95-0.71-2.76c-0.51-0.88-1.31-1.55-2.36-2C116.45,143.74,115.33,143.55,113.94,143.55L113.94,143.55z"/>
		</g>
		<g>
			<path class="st4" d="M124.44,157.35c-1.14,0-2.08-0.29-2.79-0.87c-0.53-0.43-1.17-1.25-1.17-2.71v-4.9H120
				c-0.8,0-1.38-0.56-1.38-1.34v-1.48c0-0.75,0.57-1.3,1.36-1.3h0.65l0.22-2.35c0.04-0.72,0.58-1.25,1.3-1.25h2.18
				c0.76,0,1.32,0.58,1.32,1.38v2.2h1.3c0.79,0,1.36,0.56,1.36,1.32v1.48c0,0.78-0.59,1.34-1.4,1.34h-1.34v4.06
				c0,0.13,0.01,0.2,0.02,0.24h0.01c0.04,0,0.14,0.02,0.3,0.02h1.08c0.39,0,0.76,0.17,1,0.47c0.2,0.25,0.3,0.55,0.3,0.87l-0.02,1.24
				c0,0.71-0.47,1.27-1.22,1.44l-0.05,0.01l-0.06,0.01c-0.25,0.03-0.52,0.05-0.81,0.07s-0.58,0.04-0.87,0.04
				C124.97,157.35,124.7,157.35,124.44,157.35z"/>
			<path class="st5" d="M124.32,142.15c0.21,0,0.32,0.13,0.32,0.38v3c0,0.13,0.07,0.2,0.2,0.2h2.1c0.24,0,0.36,0.11,0.36,0.32v1.48
				c0,0.23-0.13,0.34-0.4,0.34h-2.12c-0.15,0-0.22,0.08-0.22,0.24v4.82c0,0.45,0.11,0.78,0.32,0.97s0.55,0.29,1.02,0.29h1.08
				c0.09,0,0.17,0.03,0.22,0.1s0.08,0.15,0.08,0.24l-0.02,1.22c0,0.25-0.15,0.41-0.44,0.48c-0.24,0.03-0.5,0.05-0.77,0.07
				s-0.55,0.03-0.82,0.04s-0.54,0.01-0.79,0.01c-0.91,0-1.63-0.22-2.16-0.65c-0.53-0.43-0.8-1.08-0.8-1.93v-5.6
				c0-0.2-0.09-0.3-0.26-0.3H120c-0.25,0-0.38-0.11-0.38-0.34v-1.48c0-0.2,0.12-0.3,0.36-0.3h1.38c0.12,0,0.19-0.07,0.2-0.22
				l0.28-3.04c0.01-0.23,0.11-0.34,0.3-0.34L124.32,142.15 M124.32,140.15h-2.18c-1.24,0-2.2,0.91-2.29,2.18l-0.13,1.43
				c-1.21,0.12-2.09,1.06-2.09,2.29v1.48c0,1.16,0.77,2.07,1.86,2.29v3.95c0,1.85,0.84,2.91,1.54,3.48c0.9,0.73,2.05,1.1,3.42,1.1
				c0.27,0,0.55,0,0.84-0.01c0.31-0.01,0.61-0.02,0.92-0.04c0.3-0.02,0.58-0.05,0.85-0.08l0.11-0.01l0.11-0.02
				c1.19-0.27,2-1.25,2-2.43l0.02-1.19c0-0.58-0.18-1.09-0.51-1.52c-0.44-0.55-1.09-0.85-1.79-0.85h-0.42v-2.32h0.34
				c1.37,0,2.4-1.01,2.4-2.34v-1.48c0-1.32-1.01-2.32-2.36-2.32h-0.3v-1.2C126.64,141.17,125.64,140.15,124.32,140.15L124.32,140.15
				z"/>
		</g>
		<g>
			<path class="st4" d="M133.5,157.55c-1.23,0-2.33-0.28-3.29-0.83c-0.96-0.56-1.72-1.34-2.26-2.31c-0.53-0.97-0.8-2.07-0.8-3.29
				c0-1.27,0.28-2.42,0.83-3.4c0.55-0.99,1.33-1.77,2.3-2.33c0.96-0.55,2.06-0.83,3.26-0.83c1.26,0,2.38,0.29,3.33,0.85
				c0.96,0.56,1.71,1.35,2.24,2.35c0.52,0.98,0.79,2.1,0.79,3.34c0,1.23-0.27,2.35-0.8,3.31c-0.54,0.98-1.3,1.75-2.26,2.31
				C135.85,157.27,134.74,157.55,133.5,157.55z M133.52,148.53c-0.34,0-0.51,0.11-0.61,0.19c-0.18,0.14-0.33,0.38-0.44,0.7
				c-0.14,0.41-0.21,0.96-0.21,1.63c0,0.65,0.07,1.18,0.21,1.59c0.11,0.32,0.25,0.55,0.43,0.69c0.16,0.13,0.36,0.18,0.62,0.18
				c0.27,0,0.47-0.06,0.63-0.18c0.17-0.13,0.31-0.36,0.41-0.69c0.13-0.42,0.2-0.96,0.2-1.59c0-0.68-0.07-1.23-0.2-1.64
				c-0.1-0.32-0.25-0.56-0.42-0.7C134.04,148.63,133.87,148.53,133.52,148.53z"/>
			<path class="st5" d="M133.52,145.55c1.08,0,2.02,0.24,2.82,0.71s1.42,1.13,1.87,1.96s0.67,1.79,0.67,2.87
				c0,1.07-0.23,2.01-0.68,2.83s-1.08,1.46-1.89,1.93c-0.81,0.47-1.74,0.7-2.81,0.7c-1.05,0-1.98-0.23-2.79-0.7
				s-1.44-1.11-1.89-1.93c-0.45-0.82-0.68-1.76-0.68-2.81c0-1.11,0.23-2.08,0.7-2.91s1.11-1.48,1.92-1.95
				C131.57,145.78,132.49,145.55,133.52,145.55 M133.52,154.51c0.49,0,0.91-0.13,1.24-0.39s0.58-0.65,0.75-1.17s0.25-1.15,0.25-1.9
				c0-0.79-0.08-1.44-0.25-1.95s-0.42-0.9-0.75-1.17s-0.75-0.4-1.24-0.4c-0.48,0-0.89,0.13-1.23,0.4s-0.6,0.66-0.77,1.17
				s-0.26,1.16-0.26,1.95c0,0.76,0.09,1.4,0.26,1.91c0.17,0.51,0.43,0.9,0.77,1.16C132.63,154.38,133.04,154.51,133.52,154.51
				 M133.52,143.55c-1.38,0-2.64,0.32-3.75,0.96c-1.13,0.65-2.03,1.56-2.67,2.71c-0.63,1.13-0.95,2.44-0.95,3.89
				c0,1.39,0.31,2.66,0.93,3.78c0.63,1.14,1.52,2.04,2.64,2.69c1.11,0.64,2.39,0.97,3.79,0.97c1.42,0,2.7-0.33,3.81-0.97
				c1.12-0.65,2.01-1.56,2.64-2.69c0.62-1.12,0.93-2.39,0.93-3.8s-0.31-2.69-0.91-3.82c-0.62-1.16-1.5-2.08-2.61-2.74
				C136.25,143.88,134.96,143.55,133.52,143.55L133.52,143.55z M133.51,149.53L133.51,149.53h0.02c0.02,0.04,0.05,0.1,0.08,0.19
				c0.07,0.21,0.15,0.62,0.15,1.33c0,0.67-0.08,1.07-0.15,1.29c-0.03,0.08-0.05,0.13-0.07,0.17c-0.01,0-0.01,0-0.02,0
				c-0.01,0-0.02,0-0.02,0c-0.02-0.03-0.05-0.09-0.08-0.19c-0.07-0.21-0.15-0.6-0.15-1.27c0-0.7,0.08-1.1,0.15-1.31
				C133.45,149.63,133.48,149.57,133.51,149.53L133.51,149.53z"/>
		</g>
		<g>
			<path class="st4" d="M147.72,157.35c-0.51,0-0.82-0.21-1-0.38c-0.17-0.17-0.38-0.49-0.38-1.02v-6.76c0-0.17-0.03-0.29-0.08-0.34
				c-0.03-0.03-0.14-0.08-0.38-0.08c-0.16,0-0.29,0.02-0.42,0.07c-0.15,0.06-0.29,0.14-0.44,0.26c-0.11,0.09-0.22,0.19-0.34,0.31
				v6.48c0,0.86-0.62,1.46-1.52,1.46h-2.14c-0.84,0-1.42-0.58-1.42-1.4v-9.82c0-0.8,0.56-1.38,1.32-1.38h2.42
				c0.51,0,0.92,0.25,1.13,0.65c0.39-0.25,0.8-0.45,1.22-0.6c0.49-0.17,1.02-0.25,1.57-0.25c1.25,0,2.26,0.39,3.02,1.16
				c0.76,0.76,1.14,1.77,1.14,3v7.16c0,0.87-0.61,1.48-1.48,1.48L147.72,157.35L147.72,157.35z"/>
			<path class="st5" d="M147.26,145.55c0.97,0,1.74,0.29,2.31,0.86c0.57,0.57,0.85,1.34,0.85,2.3v7.16c0,0.32-0.16,0.48-0.48,0.48
				h-2.22c-0.13,0-0.23-0.03-0.29-0.09s-0.09-0.16-0.09-0.31v-6.76c0-0.45-0.12-0.8-0.37-1.05s-0.61-0.37-1.09-0.37
				c-0.28,0-0.54,0.05-0.78,0.14s-0.47,0.23-0.7,0.41c-0.23,0.18-0.47,0.41-0.72,0.69v6.88c0,0.31-0.17,0.46-0.52,0.46h-2.14
				c-0.28,0-0.42-0.13-0.42-0.4v-9.82c0-0.25,0.11-0.38,0.32-0.38h2.42c0.2,0,0.3,0.11,0.3,0.34v0.98c0,0.08,0.02,0.13,0.06,0.16
				c0.01,0.01,0.02,0.01,0.03,0.01c0.04,0,0.09-0.03,0.15-0.09c0.35-0.32,0.69-0.6,1.04-0.84c0.35-0.24,0.71-0.43,1.1-0.56
				C146.4,145.62,146.82,145.55,147.26,145.55 M147.26,143.55c-0.66,0-1.29,0.1-1.89,0.31c-0.24,0.08-0.48,0.18-0.71,0.29
				c-0.37-0.25-0.82-0.4-1.32-0.4h-2.42c-1.32,0-2.32,1.02-2.32,2.38v9.82c0,1.37,1.04,2.4,2.42,2.4h2.14c1.1,0,1.97-0.59,2.34-1.49
				c0.14,0.36,0.34,0.63,0.52,0.81c0.31,0.31,0.85,0.68,1.7,0.68h2.22c1.41,0,2.48-1.07,2.48-2.48v-7.16c0-1.48-0.49-2.76-1.43-3.71
				C150.33,144.34,149.15,143.55,147.26,143.55L147.26,143.55z"/>
		</g>
		<g>
			<path class="st4" d="M165.74,157.35c-0.68,0-1.22-0.42-1.4-1.09l-1.99-5.15h-0.91v4.76c0,0.87-0.63,1.48-1.54,1.48h-2.54
				c-0.57,0-0.9-0.24-1.08-0.44c-0.15-0.17-0.34-0.48-0.34-0.96v-14.06c0-0.8,0.56-1.38,1.32-1.38h6.24c1.99,0,3.59,0.42,4.75,1.25
				c1.25,0.89,1.91,2.22,1.91,3.83c0,0.83-0.16,1.58-0.48,2.25c-0.31,0.66-0.74,1.22-1.25,1.66c-0.27,0.23-0.57,0.44-0.87,0.61
				l2.34,5.3c0.18,0.48,0.15,0.91-0.05,1.27c-0.23,0.42-0.67,0.67-1.16,0.67H165.74z M163.18,146.75c0.52,0,0.9-0.09,1.12-0.27
				c0.07-0.06,0.24-0.19,0.24-0.65c0-0.5-0.18-0.65-0.25-0.7c-0.23-0.18-0.57-0.28-1.01-0.28h-1.84v1.9H163.18z"/>
			<path class="st5" d="M163.5,141.51c1.79,0,3.18,0.35,4.17,1.06s1.49,1.71,1.49,3.02c0,0.68-0.13,1.29-0.38,1.82
				c-0.25,0.53-0.59,0.98-1,1.33s-0.87,0.62-1.36,0.79c-0.12,0.04-0.15,0.14-0.08,0.3l2.64,5.98c0.05,0.15,0.05,0.27-0.01,0.38
				s-0.16,0.16-0.29,0.16h-2.94c-0.23,0-0.37-0.12-0.44-0.36l-2.16-5.6c-0.08-0.19-0.27-0.28-0.56-0.28h-1.9
				c-0.09,0-0.16,0.03-0.19,0.08s-0.05,0.1-0.05,0.14v5.54c0,0.32-0.18,0.48-0.54,0.48h-2.54c-0.16,0-0.27-0.03-0.33-0.1
				s-0.09-0.17-0.09-0.3v-14.06c0-0.25,0.11-0.38,0.32-0.38L163.5,141.51 M160.72,147.75h2.46c0.76,0,1.34-0.16,1.75-0.49
				s0.61-0.8,0.61-1.43c0-0.65-0.21-1.15-0.62-1.48c-0.41-0.33-0.96-0.5-1.64-0.5h-2.46c-0.25,0-0.38,0.11-0.38,0.34v3.22
				C160.44,147.64,160.53,147.75,160.72,147.75 M163.5,139.51h-6.24c-1.32,0-2.32,1.02-2.32,2.38v14.06c0,0.8,0.33,1.34,0.61,1.64
				c0.25,0.28,0.82,0.76,1.81,0.76h2.54c1.47,0,2.54-1.04,2.54-2.48v-1.74l0.97,2.51c0.34,1.04,1.24,1.7,2.33,1.7h2.94
				c0.86,0,1.62-0.44,2.03-1.18c0.35-0.62,0.4-1.34,0.15-2.04l-0.02-0.06l-0.03-0.06l-2-4.52c0.09-0.07,0.18-0.14,0.27-0.22
				c0.62-0.53,1.13-1.2,1.51-1.99c0.38-0.8,0.57-1.7,0.57-2.68c0-1.96-0.81-3.56-2.33-4.65C167.49,139.99,165.7,139.51,163.5,139.51
				L163.5,139.51z"/>
		</g>
		<g>
			<path class="st4" d="M175.3,157.55c-1.23,0-2.33-0.28-3.29-0.83c-0.96-0.56-1.72-1.34-2.26-2.31c-0.53-0.97-0.8-2.07-0.8-3.29
				c0-1.27,0.28-2.42,0.83-3.4c0.55-0.99,1.33-1.77,2.3-2.33c0.96-0.55,2.06-0.83,3.26-0.83c1.26,0,2.38,0.29,3.33,0.85
				c0.96,0.56,1.71,1.35,2.24,2.35c0.52,0.98,0.79,2.1,0.79,3.34c0,1.23-0.27,2.35-0.8,3.31c-0.54,0.98-1.3,1.75-2.26,2.31
				C177.65,157.27,176.54,157.55,175.3,157.55z M175.32,148.53c-0.34,0-0.51,0.11-0.61,0.19c-0.18,0.14-0.33,0.38-0.44,0.7
				c-0.14,0.41-0.21,0.96-0.21,1.63c0,0.65,0.07,1.18,0.21,1.59c0.11,0.32,0.25,0.55,0.43,0.69c0.16,0.13,0.36,0.18,0.62,0.18
				c0.27,0,0.47-0.06,0.63-0.18c0.17-0.13,0.31-0.36,0.41-0.69c0.13-0.42,0.2-0.96,0.2-1.59c0-0.68-0.07-1.23-0.2-1.64
				c-0.1-0.32-0.25-0.56-0.42-0.7C175.84,148.63,175.67,148.53,175.32,148.53z"/>
			<path class="st5" d="M175.32,145.55c1.08,0,2.02,0.24,2.82,0.71s1.42,1.13,1.87,1.96s0.67,1.79,0.67,2.87
				c0,1.07-0.23,2.01-0.68,2.83s-1.08,1.46-1.89,1.93c-0.81,0.47-1.74,0.7-2.81,0.7c-1.05,0-1.98-0.23-2.79-0.7
				s-1.44-1.11-1.89-1.93c-0.45-0.82-0.68-1.76-0.68-2.81c0-1.11,0.23-2.08,0.7-2.91s1.11-1.48,1.92-1.95
				C173.37,145.78,174.29,145.55,175.32,145.55 M175.32,154.51c0.49,0,0.91-0.13,1.24-0.39s0.58-0.65,0.75-1.17s0.25-1.15,0.25-1.9
				c0-0.79-0.08-1.44-0.25-1.95s-0.42-0.9-0.75-1.17s-0.75-0.4-1.24-0.4c-0.48,0-0.89,0.13-1.23,0.4s-0.6,0.66-0.77,1.17
				s-0.26,1.16-0.26,1.95c0,0.76,0.09,1.4,0.26,1.91c0.17,0.51,0.43,0.9,0.77,1.16C174.43,154.38,174.84,154.51,175.32,154.51
				 M175.32,143.55c-1.38,0-2.64,0.32-3.75,0.96c-1.13,0.65-2.03,1.56-2.67,2.71c-0.63,1.13-0.95,2.44-0.95,3.89
				c0,1.39,0.31,2.66,0.93,3.78c0.63,1.14,1.52,2.04,2.64,2.69c1.11,0.64,2.39,0.97,3.79,0.97c1.42,0,2.7-0.33,3.81-0.97
				c1.12-0.65,2.01-1.56,2.64-2.69c0.62-1.12,0.93-2.39,0.93-3.8s-0.31-2.69-0.91-3.82c-0.62-1.16-1.5-2.08-2.62-2.74
				C178.05,143.88,176.75,143.55,175.32,143.55L175.32,143.55z M175.3,149.53L175.3,149.53h0.02c0.02,0.04,0.05,0.1,0.08,0.19
				c0.07,0.21,0.15,0.62,0.15,1.33c0,0.67-0.08,1.07-0.15,1.29c-0.03,0.08-0.05,0.13-0.07,0.17c-0.01,0-0.01,0-0.02,0
				c-0.01,0-0.02,0-0.02,0c-0.02-0.03-0.05-0.09-0.08-0.19c-0.07-0.21-0.15-0.6-0.15-1.27c0-0.7,0.08-1.1,0.15-1.31
				C175.25,149.63,175.28,149.57,175.3,149.53L175.3,149.53z"/>
		</g>
		<g>
			<path class="st4" d="M185.36,157.55c-0.75,0-1.44-0.17-2.05-0.5c-0.63-0.34-1.13-0.85-1.48-1.51c-0.35-0.63-0.52-1.38-0.52-2.21
				v-7.1c0-0.87,0.61-1.48,1.48-1.48H185c0.81,0,1.38,0.58,1.38,1.42v6.72c0,0.17,0.03,0.29,0.09,0.36
				c0.05,0.05,0.15,0.08,0.31,0.08c0.23,0,0.45-0.06,0.66-0.19c0.18-0.11,0.36-0.24,0.52-0.4v-6.54c0-0.86,0.62-1.46,1.52-1.46h2.16
				c0.84,0,1.42,0.58,1.42,1.42l-0.04,9.82c0,0.78-0.56,1.36-1.32,1.36h-2.38c-0.49,0-0.89-0.24-1.11-0.62
				c-0.22,0.14-0.45,0.26-0.67,0.36C186.85,157.4,186.12,157.55,185.36,157.55z"/>
			<path class="st5" d="M191.64,145.75c0.28,0,0.42,0.14,0.42,0.42l-0.04,9.82c0,0.24-0.11,0.36-0.32,0.36h-2.38
				c-0.2,0-0.3-0.11-0.3-0.34v-0.98c0-0.08-0.02-0.13-0.06-0.15c-0.01,0-0.02-0.01-0.03-0.01c-0.04,0-0.08,0.03-0.13,0.08
				c-0.56,0.57-1.12,0.98-1.67,1.23s-1.14,0.37-1.77,0.37c-0.59,0-1.11-0.13-1.57-0.38s-0.82-0.62-1.09-1.11
				c-0.27-0.49-0.4-1.06-0.4-1.73v-7.1c0-0.32,0.16-0.48,0.48-0.48H185c0.25,0,0.38,0.14,0.38,0.42v6.72c0,0.44,0.12,0.79,0.37,1.05
				c0.25,0.26,0.59,0.39,1.03,0.39c0.41,0,0.8-0.11,1.17-0.33s0.7-0.5,1.01-0.85v-6.94c0-0.31,0.17-0.46,0.52-0.46L191.64,145.75
				 M191.64,143.75h-2.16c-1.07,0-1.92,0.55-2.3,1.41c-0.36-0.85-1.18-1.41-2.18-1.41h-2.22c-1.41,0-2.48,1.07-2.48,2.48v7.1
				c0,1,0.22,1.91,0.65,2.69c0.45,0.82,1.08,1.46,1.88,1.9c0.75,0.42,1.61,0.63,2.53,0.63c0.91,0,1.77-0.18,2.58-0.54
				c0.03-0.01,0.06-0.03,0.08-0.04c0.36,0.24,0.81,0.38,1.29,0.38h2.38c1.32,0,2.32-1.01,2.32-2.36l0.04-9.81
				C194.06,144.79,193.02,143.75,191.64,143.75L191.64,143.75z"/>
		</g>
		<g>
			<path class="st4" d="M199.1,160.85c-2.09,0-3.65-0.24-4.76-0.72c-1.7-0.75-2.06-1.96-2.06-2.86c0-0.77,0.31-1.43,0.91-1.92
				c0.1-0.08,0.21-0.16,0.32-0.24c-0.31-0.39-0.47-0.88-0.47-1.43c0-0.49,0.16-0.96,0.48-1.35c0.2-0.25,0.45-0.48,0.74-0.69
				c-0.18-0.17-0.34-0.35-0.48-0.54c-0.46-0.63-0.69-1.36-0.69-2.19c0-1.31,0.59-2.42,1.71-3.21c1.04-0.74,2.47-1.11,4.35-1.11
				c0.83,0,1.56,0.09,2.19,0.28c0.44,0.13,0.84,0.31,1.18,0.51c0.12-0.11,0.26-0.22,0.4-0.33c0.31-0.22,0.63-0.4,0.97-0.54
				c0.39-0.16,0.74-0.23,1.07-0.23c0.37,0,0.7,0.12,0.96,0.36c0.2,0.18,0.44,0.52,0.44,1.08v1.36c0,0.6-0.24,0.94-0.45,1.13
				c-0.24,0.22-0.56,0.34-0.9,0.34c-0.09,0-0.19-0.01-0.29-0.03l0,0c0.01,0.12,0.02,0.23,0.02,0.36c0,0.81-0.24,1.56-0.71,2.23
				c-0.45,0.64-1.12,1.15-2,1.52c1.04,0.17,1.85,0.51,2.45,1.01c0.85,0.71,1.3,1.66,1.3,2.77c0,1.34-0.65,2.49-1.89,3.31
				C202.75,160.48,201.18,160.85,199.1,160.85z M196.82,156.92c0.01,0,0.02,0.02,0.04,0.04c0.02,0.02,0.16,0.15,0.62,0.25
				c0.43,0.1,1.04,0.15,1.81,0.15c0.92,0,1.38-0.14,1.61-0.26c0.08-0.04,0.12-0.07,0.15-0.1c-0.08-0.04-0.25-0.11-0.61-0.12
				l-3.08-0.14l-0.05-1v1c-0.11,0-0.2,0.02-0.3,0.05C196.94,156.83,196.87,156.87,196.82,156.92z M198.9,148.13
				c-0.39,0-0.67,0.08-0.83,0.24c-0.11,0.11-0.23,0.26-0.23,0.58c0,0.2,0.06,0.33,0.21,0.47c0.17,0.15,0.45,0.23,0.85,0.23
				c0.58,0,0.78-0.14,0.84-0.2c0.14-0.14,0.2-0.29,0.2-0.5c0-0.35-0.11-0.52-0.21-0.62C199.6,148.2,199.3,148.13,198.9,148.13z"/>
			<path class="st5" d="M204.96,145.29c0.12,0,0.22,0.03,0.29,0.1c0.07,0.07,0.11,0.18,0.11,0.34v1.36c0,0.19-0.04,0.32-0.12,0.39
				c-0.06,0.05-0.14,0.08-0.23,0.08c-0.03,0-0.07,0-0.11-0.01c-0.17-0.03-0.34-0.04-0.51-0.05c-0.03,0-0.06,0-0.1,0
				c-0.13,0-0.24,0.01-0.33,0.03c-0.36,0.05-0.49,0.21-0.4,0.46c0.03,0.12,0.06,0.25,0.11,0.4s0.07,0.31,0.07,0.5
				c0,0.6-0.18,1.15-0.53,1.65s-0.89,0.9-1.61,1.19c-0.72,0.29-1.61,0.44-2.68,0.44c-0.53,0-0.96,0.03-1.28,0.09
				c-0.32,0.06-0.55,0.14-0.69,0.24s-0.21,0.21-0.21,0.33c0,0.17,0.1,0.3,0.31,0.37c0.21,0.07,0.52,0.12,0.95,0.15l2.86,0.16
				c1.36,0.08,2.35,0.38,2.98,0.9c0.63,0.52,0.94,1.19,0.94,2c0,1.01-0.48,1.84-1.44,2.48s-2.37,0.96-4.24,0.96
				c-1.93,0-3.39-0.21-4.36-0.64s-1.46-1.07-1.46-1.94c0-0.47,0.18-0.85,0.54-1.14s0.82-0.54,1.38-0.74c0.17-0.07,0.17-0.14,0-0.22
				c-0.33-0.16-0.61-0.36-0.83-0.59s-0.33-0.53-0.33-0.89c0-0.27,0.09-0.51,0.26-0.73s0.41-0.42,0.7-0.61s0.62-0.35,0.98-0.48
				c0.07-0.03,0.11-0.06,0.14-0.11s-0.01-0.09-0.1-0.13c-0.63-0.29-1.11-0.67-1.44-1.12s-0.5-0.99-0.5-1.6
				c0-0.99,0.43-1.79,1.29-2.4s2.12-0.92,3.77-0.92c0.73,0,1.37,0.08,1.9,0.24s0.97,0.38,1.3,0.66c0.08,0.06,0.17,0.09,0.26,0.09
				c0.01,0,0.02,0,0.03,0c0.1-0.01,0.18-0.05,0.25-0.13c0.17-0.21,0.38-0.41,0.62-0.58c0.24-0.17,0.49-0.31,0.76-0.42
				C204.52,145.34,204.76,145.29,204.96,145.29 M198.9,150.65c0.71,0,1.22-0.16,1.55-0.49s0.49-0.73,0.49-1.21
				c0-0.53-0.16-0.97-0.49-1.31s-0.84-0.51-1.55-0.51c-0.65,0-1.16,0.17-1.52,0.51s-0.54,0.78-0.54,1.31c0,0.48,0.18,0.88,0.54,1.21
				C197.74,150.49,198.24,150.65,198.9,150.65 M199.3,158.37c0.91,0,1.6-0.12,2.07-0.37s0.71-0.6,0.71-1.05
				c0-0.28-0.13-0.52-0.39-0.72s-0.66-0.31-1.19-0.34l-3.08-0.14c-0.03,0-0.07,0-0.1,0c-0.23,0-0.45,0.04-0.66,0.12
				c-0.24,0.09-0.44,0.23-0.6,0.4s-0.24,0.37-0.24,0.6c0,0.31,0.11,0.57,0.34,0.8s0.59,0.4,1.1,0.52
				C197.76,158.31,198.44,158.37,199.3,158.37 M204.96,143.29c-0.46,0-0.93,0.1-1.44,0.3c-0.39,0.16-0.77,0.36-1.12,0.61
				c-0.25-0.11-0.51-0.2-0.78-0.29c-0.72-0.22-1.55-0.32-2.48-0.32c-2.1,0-3.71,0.42-4.93,1.29c-1.39,0.99-2.13,2.39-2.13,4.03
				c0,0.99,0.27,1.87,0.79,2.64c-0.05,0.06-0.1,0.11-0.14,0.17c-0.45,0.57-0.69,1.25-0.69,1.97c0,0.42,0.07,0.81,0.2,1.18
				c-0.62,0.64-0.96,1.48-0.96,2.4c0,0.97,0.35,2.76,2.66,3.77c1.24,0.54,2.93,0.81,5.16,0.81c2.29,0,4.04-0.42,5.35-1.3
				c1.93-1.28,2.33-2.96,2.33-4.14c0-1.41-0.57-2.64-1.66-3.54c-0.25-0.2-0.52-0.38-0.81-0.54c0.2-0.2,0.38-0.41,0.54-0.64
				c0.48-0.68,0.77-1.43,0.86-2.24c0.33-0.1,0.63-0.27,0.89-0.51c0.35-0.32,0.77-0.9,0.77-1.86v-1.36c0-0.72-0.27-1.37-0.76-1.82
				C206.15,143.51,205.57,143.29,204.96,143.29L204.96,143.29z"/>
		</g>
		<g>
			<path class="st4" d="M211.22,157.55c-1.21,0-2.31-0.27-3.27-0.81c-0.97-0.54-1.74-1.3-2.31-2.26c-0.56-0.96-0.85-2.06-0.85-3.28
				c0-1.32,0.29-2.49,0.86-3.49s1.35-1.79,2.32-2.34c0.96-0.55,2.03-0.83,3.18-0.83c1.2,0,2.28,0.27,3.2,0.8
				c0.93,0.54,1.68,1.31,2.21,2.3c0.52,0.97,0.79,2.15,0.79,3.5c0,0.25-0.03,0.47-0.09,0.65c-0.08,0.23-0.34,0.76-1.18,0.82H216
				l0.34,0.14c0.52,0.22,0.68,0.61,0.74,0.82c0.06,0.22,0.09,0.65-0.27,1.12c-0.45,0.65-0.97,1.21-1.52,1.63
				c-0.57,0.44-1.21,0.76-1.9,0.94C212.74,157.46,212.01,157.55,211.22,157.55z M210.18,152.74c0.14,0.23,0.32,0.4,0.55,0.52
				c0.25,0.13,0.53,0.2,0.86,0.2c0.32,0,0.61-0.07,0.88-0.2c0.24-0.12,0.5-0.33,0.77-0.62h-3.13
				C210.14,152.67,210.16,152.7,210.18,152.74z M212.14,148.95c-0.08-0.15-0.19-0.27-0.33-0.38c-0.12-0.09-0.3-0.14-0.54-0.14
				c-0.25,0-0.47,0.06-0.66,0.17c-0.14,0.09-0.25,0.19-0.34,0.33L212.14,148.95z"/>
			<path class="st5" d="M211.16,145.55c1.03,0,1.93,0.22,2.7,0.67s1.38,1.08,1.83,1.91s0.67,1.83,0.67,3.02
				c0,0.15-0.01,0.26-0.04,0.34s-0.13,0.13-0.3,0.14h-6.8c-0.08,0-0.14,0.03-0.18,0.08s-0.06,0.13-0.06,0.24
				c0,0.49,0.12,0.93,0.35,1.31c0.23,0.38,0.55,0.67,0.94,0.88s0.84,0.31,1.33,0.31c0.48,0,0.92-0.1,1.33-0.31
				c0.41-0.21,0.82-0.55,1.23-1.03c0.05-0.05,0.1-0.08,0.14-0.09h0.01c0.04,0,0.11,0.02,0.21,0.07l1.44,0.6
				c0.19,0.08,0.21,0.21,0.06,0.4c-0.43,0.61-0.87,1.1-1.34,1.46s-0.98,0.62-1.55,0.77c-0.57,0.15-1.2,0.23-1.91,0.23
				c-1.04,0-1.97-0.23-2.78-0.68s-1.46-1.08-1.93-1.89c-0.47-0.81-0.71-1.73-0.71-2.77c0-1.15,0.24-2.14,0.73-2.99
				c0.49-0.85,1.14-1.5,1.95-1.97C209.29,145.78,210.18,145.55,211.16,145.55 M213,149.95c0.15,0,0.24-0.02,0.28-0.05
				s0.06-0.11,0.06-0.23c0-0.33-0.08-0.67-0.23-1.02s-0.38-0.64-0.68-0.87c-0.3-0.23-0.68-0.35-1.15-0.35
				c-0.44,0-0.83,0.11-1.18,0.32c-0.35,0.21-0.61,0.51-0.8,0.89s-0.28,0.81-0.28,1.29L213,149.95 M211.16,143.55
				c-1.32,0-2.56,0.32-3.67,0.96c-1.12,0.64-2.03,1.56-2.69,2.71c-0.66,1.15-1,2.49-1,3.99c0,1.4,0.33,2.67,0.99,3.78
				c0.65,1.11,1.55,2,2.68,2.62c1.11,0.62,2.37,0.93,3.75,0.93c0.88,0,1.7-0.1,2.43-0.3c0.82-0.22,1.58-0.6,2.25-1.12
				c0.62-0.48,1.2-1.1,1.74-1.87c0.59-0.79,0.51-1.54,0.41-1.93c-0.05-0.19-0.12-0.36-0.21-0.53c0.16-0.2,0.29-0.43,0.38-0.69
				c0.1-0.3,0.14-0.61,0.14-0.98c0-1.52-0.31-2.85-0.91-3.97c-0.62-1.15-1.49-2.06-2.59-2.69
				C213.78,143.87,212.53,143.55,211.16,143.55L211.16,143.55z"/>
		</g>
	</g>
	<g>
		<rect x="33.25" y="625.29" class="st6" width="155.58" height="47.5"/>
		<g>
			<g>
				<polyline class="st7" points="52.47,638.84 52.47,648.54 172.01,648.54 172.01,638.84 				"/>
				<line class="st7" x1="112.24" y1="643.02" x2="112.24" y2="648.54"/>
				<text transform="matrix(1 0 0 1 50.0261 661.2434)" class="st8 st9 st10">0</text>
				<text transform="matrix(1 0 0 1 109.7663 661.2434)" class="st8 st9 st10">5</text>
				<text transform="matrix(1 0 0 1 149.0728 661.2434)" class="st8 st9 st10">10 mi</text>
			</g>
		</g>
	</g>
	<text transform="matrix(1 0 0 1 603 323.4587)" class="st11 st9 st12">Lake Maurepas</text>
	<text transform="matrix(1 0 0 1 850 373.6806)" class="st11 st9 st12">Lake Pontchartrain</text>
	<text transform="matrix(1 0 0 1 353.16 390.7005)" class="st11 st9 st12">MISSISSIPPI RIVER</text>
	<polyline class="st13" points="344.83,409.16 344.83,394.15 344.83,387.54 349.83,387.54 	"/>
	<line class="st13" x1="344.9" y1="255.52" x2="302.3" y2="255.52"/>
	<g>
		<text transform="matrix(1 0 0 1 352 251)"><tspan x="0" y="0" class="st11 st9 st14">Each point represents </tspan><tspan x="0" y="20" class="st11 st9 st14">a factory or refinery.</tspan></text>
	</g>
</g>
</svg>
